<?xml version="1.0" encoding="utf-8"?>
<!-- Generator: Adobe Illustrator 16.0.0, SVG Export Plug-In . SVG Version: 6.00 Build 0)  -->
<!DOCTYPE svg PUBLIC "-//W3C//DTD SVG 1.1//EN" "http://www.w3.org/Graphics/SVG/1.1/DTD/svg11.dtd">
<svg version="1.1" id="logo" xmlns="http://www.w3.org/2000/svg" xmlns:xlink="http://www.w3.org/1999/xlink" x="0px" y="0px"
	 width="147px" height="32px" viewBox="0 0 147 32" enable-background="new 0 0 147 32" xml:space="preserve">
<path fill="#F25B24" d="M52.357,2.479v4.288h8.411V28.86h4.615V6.768h8.41V2.479H52.357z M78.575,2.479V28.86h19.784v-4.122H83.191
	v-7.09h13.19v-4.12h-13.19V6.602h15.004V2.479H78.575z M112.375,2.479c-5.277,0-9.07,3.134-9.07,7.586
	c0,4.945,3.133,6.594,8.74,7.913c4.945,0.989,5.936,2.143,5.936,3.956c0,1.98-1.813,3.299-4.616,3.299
	c-3.299,0-5.935-1.318-8.409-3.463l-2.803,3.298c3.132,2.804,6.926,4.122,11.212,4.452c5.44,0,9.397-2.967,9.397-7.913
	c0-4.453-2.803-6.433-8.408-7.752c-5.109-1.154-6.266-2.142-6.266-4.12c0-1.813,1.648-3.134,4.287-3.134
	c2.309,0,4.781,0.824,7.09,2.64l2.473-3.463C119.3,3.636,116.166,2.479,112.375,2.479z M125.564,2.479v4.288h8.41V28.86h4.616V6.768
	H147V2.479H125.564z"/>
<path fill="#FFFFFF" d="M18.467,0.09C8.078,0.09,0,8.499,0,18.721c0,4.287,1.484,8.574,4.287,11.871L5.44,31.91l2.144-2.142
	L6.76,28.613c-2.308-2.805-3.463-6.266-3.463-9.893c0-8.575,6.926-15.5,15.5-15.5c8.572,0,15.498,6.925,15.498,15.5
	c0,3.626-1.32,7.088-3.465,9.893l-0.821,1.155l2.144,2.142l1.153-1.318c2.308-3.461,3.791-7.584,3.791-11.871
	C37.097,8.498,28.854,0.09,18.467,0.09z M25.227,10.477l-10.387,8.244l3.627,3.626l8.242-10.387L25.227,10.477z"/>
</svg>
